<mxfile host="app.diagrams.net" modified="2024-03-28T07:00:36.407Z" agent="Mozilla/5.0 (Windows NT 10.0; Win64; x64) AppleWebKit/537.36 (KHTML, like Gecko) Chrome/123.0.0.0 Safari/537.36" version="22.1.17" etag="02sfgdHrgTakWP9rsTx4" type="github">
  <diagram name="Page-1" id="wt3BBrPwltUTNYdrdwGn">
    <mxGraphModel>
      <root>
        <mxCell id="0" />
        <mxCell id="1" parent="0" />
      </root>
    </mxGraphModel>
  </diagram>
</mxfile>
